<svg width="26" height="28" viewBox="0 0 26 28" fill="none" xmlns="http://www.w3.org/2000/svg">
<path d="M12.3333 0.333333C9.25678 0.333333 6.70638 2.67605 6.37232 5.66667H4.99992C3.45859 5.66667 2.17555 6.82213 2.01555 8.35547L0.348882 24.3555C0.260882 25.1988 0.53609 26.0444 1.10409 26.6758C1.67209 27.3058 2.48526 27.6667 3.33326 27.6667H22.6666C23.5146 27.6667 24.3277 27.3058 24.8957 26.6758C25.4637 26.0451 25.7377 25.1988 25.6497 24.3555L23.9843 8.35547C23.8243 6.82213 22.5413 5.66667 20.9999 5.66667H19.6353C19.656 5.88667 19.6666 6.10933 19.6666 6.33333V7.66667H20.9999C21.5139 7.66667 21.9414 8.05247 21.9947 8.5638L23.6614 24.5638C23.6907 24.8451 23.5987 25.1266 23.4101 25.3359C23.2207 25.5459 22.9492 25.6667 22.6666 25.6667H3.33326C3.05059 25.6667 2.77974 25.5466 2.59107 25.3372C2.40174 25.1272 2.30913 24.8451 2.33846 24.5638L4.00513 8.5638C4.05846 8.05247 4.48592 7.66667 4.99992 7.66667H6.33326V10C6.33138 10.1325 6.35586 10.2641 6.40528 10.387C6.45469 10.51 6.52805 10.6219 6.62109 10.7163C6.71414 10.8107 6.82501 10.8856 6.94727 10.9368C7.06953 10.9879 7.20073 11.0142 7.33325 11.0142C7.46578 11.0142 7.59698 10.9879 7.71924 10.9368C7.8415 10.8856 7.95237 10.8107 8.04541 10.7163C8.13846 10.6219 8.21182 10.51 8.26123 10.387C8.31065 10.2641 8.33513 10.1325 8.33325 10V6.33333C8.33325 4.11248 10.1124 2.33333 12.3333 2.33333C14.3264 2.33333 15.9599 3.76739 16.2747 5.66667H9.75513C9.69913 5.88 9.66659 6.10267 9.66659 6.33333V7.66667H16.3333V10C16.3314 10.1325 16.3559 10.2641 16.4053 10.387C16.4547 10.51 16.528 10.6219 16.6211 10.7163C16.7141 10.8107 16.825 10.8856 16.9473 10.9368C17.0695 10.9879 17.2007 11.0142 17.3333 11.0142C17.4658 11.0142 17.597 10.9879 17.7192 10.9368C17.8415 10.8856 17.9524 10.8107 18.0454 10.7163C18.1385 10.6219 18.2118 10.51 18.2612 10.387C18.3106 10.2641 18.3351 10.1325 18.3333 10V6.33333C18.3333 3.03152 15.6351 0.333333 12.3333 0.333333Z" fill="#2B3232"/>
</svg>
