<svg width="181" height="60" viewBox="0 0 181 60" fill="none" xmlns="http://www.w3.org/2000/svg">
<path fill-rule="evenodd" clip-rule="evenodd" d="M31.1163 22.3492V30.1021C31.1163 30.747 30.5935 31.2698 29.9486 31.2698C29.3037 31.2698 28.7809 30.747 28.7809 30.1021V21.1815V3.02912C28.7809 3.01712 28.7811 3.00516 28.7814 2.99324C28.7811 2.98133 28.7809 2.96937 28.7809 2.95737C28.7809 2.31246 29.3037 1.78966 29.9486 1.78966H42.5069L42.6388 1.82067C44.6566 2.29517 46.4637 3.77532 47.8501 5.55784C49.2509 7.35889 50.3265 9.59852 50.8224 11.8144L50.8795 12.0694L50.8224 12.3245C50.3265 14.5403 49.2509 16.7799 47.8501 18.581C46.4637 20.3635 44.6566 21.8437 42.6388 22.3182L42.5069 22.3492H31.1163ZM31.1163 4.12508H42.2271C43.4908 4.46523 44.8332 5.48296 46.0066 6.99165C47.1494 8.46084 48.041 10.2828 48.4833 12.0694C48.041 13.856 47.1494 15.678 46.0066 17.1472C44.8332 18.6559 43.4908 19.6736 42.2271 20.0137H31.1163V4.12508Z" fill="#30D5C9"/>
<path fill-rule="evenodd" clip-rule="evenodd" d="M31.1158 56.8633C31.1162 56.8756 31.1164 56.8879 31.1164 56.9003C31.1164 57.5452 30.5936 58.068 29.9487 58.068H17.3904L17.2585 58.037C15.2406 57.5625 13.4336 56.0822 12.0472 54.2997C10.6464 52.4986 9.57101 50.2589 9.07524 48.0432L9.01819 47.7883L9.07523 47.5333C9.57101 45.3174 10.6464 43.0778 12.0472 41.2767C13.4336 39.4942 15.2407 38.014 17.2585 37.5395L17.3904 37.5085H28.7809V30.102C28.7809 29.4571 29.3037 28.9343 29.9486 28.9343C30.5935 28.9343 31.1163 29.4571 31.1163 30.102V38.6634C31.1164 38.6677 31.1164 38.672 31.1164 38.6762C31.1164 38.6805 31.1164 38.6848 31.1163 38.689V56.8286C31.1163 56.8402 31.1162 56.8518 31.1158 56.8633ZM28.7809 39.8439H17.6702C16.4065 40.1841 15.0641 41.2018 13.8907 42.7105C12.748 44.1797 11.8564 46.0017 11.4144 47.7883C11.8564 49.5747 12.748 51.3967 13.8907 52.8659C15.0641 54.3747 16.4065 55.3925 17.6702 55.7326H28.7809V39.8439Z" fill="#231F20"/>
<path fill-rule="evenodd" clip-rule="evenodd" d="M11.7795 49.7484C11.7712 49.7573 11.7627 49.7661 11.754 49.7748C11.298 50.2308 10.5586 50.2308 10.1026 49.7748L1.22253 40.8947L1.15123 40.7796C0.0598563 39.0174 -0.17129 36.6929 0.108866 34.4521C0.391935 32.188 1.21519 29.8438 2.4315 27.9264L2.57145 27.7058L2.79205 27.5658C4.70945 26.3495 7.05359 25.5262 9.31766 25.2432C11.5584 24.9631 13.8829 25.1944 15.6453 26.286L15.7604 26.3572L23.8148 34.4113L29.0519 29.1743C29.508 28.7183 30.2473 28.7183 30.7033 29.1743C31.1593 29.6304 31.1593 30.3697 30.7033 30.8257L11.8047 49.724C11.7964 49.7323 11.788 49.7404 11.7795 49.7484ZM10.9282 47.2976L22.1634 36.0627L14.3068 28.2064C13.1727 27.5532 11.5039 27.3235 9.60735 27.5606C7.76047 27.7915 5.84167 28.4494 4.2658 29.4001C3.31506 30.976 2.65716 32.8949 2.42625 34.7418C2.18912 36.6384 2.41868 38.3072 3.07172 39.4411L10.9282 47.2976Z" fill="#231F20"/>
<path fill-rule="evenodd" clip-rule="evenodd" d="M3.01328 31.2692C3.00122 31.2695 2.98912 31.2697 2.97698 31.2697C2.33207 31.2697 1.80927 30.7469 1.80927 30.102V17.5436L1.8403 17.4117C2.31503 15.3939 3.79523 13.5869 5.57781 12.2005C7.37891 10.7998 9.61857 9.72432 11.8344 9.22855L12.0894 9.17151L12.3444 9.22855C14.5602 9.72432 16.7999 10.7998 18.601 12.2005C20.3835 13.5869 21.8636 15.394 22.3382 17.4118L22.3692 17.5437V28.9343H29.7753C30.4202 28.9343 30.943 29.4571 30.943 30.102C30.943 30.7469 30.4202 31.2697 29.7753 31.2697H21.2071C21.2052 31.2697 21.2033 31.2697 21.2014 31.2697C21.1996 31.2697 21.1977 31.2697 21.1958 31.2697H3.04914C3.03714 31.2697 3.02519 31.2695 3.01328 31.2692ZM4.14469 28.9343H20.0337V17.8235C19.6936 16.5598 18.6759 15.2174 17.1672 14.044C15.698 12.9014 13.876 12.0097 12.0894 11.5677C10.3028 12.0097 8.48083 12.9014 7.01156 14.044C5.50286 15.2174 4.48501 16.5598 4.14469 17.8236V28.9343Z" fill="#231F20"/>
<path fill-rule="evenodd" clip-rule="evenodd" d="M23.6922 22.1632L12.4573 10.9282L20.3136 3.07152C21.4477 2.41847 23.1165 2.189 25.0131 2.42617C26.8599 2.65712 28.7788 3.31502 30.3547 4.26561C31.3054 5.84167 31.9633 7.76048 32.1942 9.60735C32.4313 11.5038 32.2018 13.1727 31.5487 14.307L23.6922 22.1632ZM25.3436 23.8146L33.398 15.7605L33.4693 15.6453C34.5606 13.8828 34.7918 11.5584 34.5116 9.31761C34.2285 7.05355 33.4053 4.70944 32.189 2.79188L32.049 2.5712L31.8283 2.43123C29.911 1.21517 27.5669 0.391916 25.3028 0.108795C23.0621 -0.171413 20.7376 0.0596309 18.9752 1.15097L18.8601 1.22229L9.98 10.1028C9.52399 10.5588 9.524 11.2981 9.98003 11.7542C9.98952 11.7636 9.99913 11.7729 10.0089 11.782C10.016 11.7896 10.0233 11.7971 10.0307 11.8045L22.8665 24.6402L28.9294 30.7031C29.3854 31.1591 30.1248 31.1591 30.5808 30.7031C31.0368 30.2471 31.0368 29.5078 30.5808 29.0517L25.3436 23.8146Z" fill="#231F20"/>
<path fill-rule="evenodd" clip-rule="evenodd" d="M47.2977 49.0716L39.4413 56.9283C38.3072 57.5814 36.6384 57.8109 34.7419 57.5738C32.895 57.3429 30.9762 56.685 29.4003 55.7343C28.4496 54.1584 27.7917 52.2396 27.5608 50.3926C27.3237 48.4961 27.5532 46.8271 28.2063 45.6928L36.0629 37.8366L47.2977 49.0716ZM34.4115 36.1851L26.357 44.2393L26.2857 44.3545C25.1944 46.117 24.9632 48.4416 25.2434 50.6824C25.5265 52.9465 26.3497 55.2906 27.566 57.208L27.706 57.4286L27.9266 57.5686C29.844 58.7849 32.1881 59.6081 34.4522 59.8912C36.6929 60.1714 39.0174 59.9402 40.7797 58.8489L40.8949 58.7776L49.775 49.8971C50.231 49.441 50.231 48.7017 49.7749 48.2457C49.7655 48.2362 49.7559 48.227 49.7462 48.2179C49.739 48.2103 49.7317 48.2028 49.7242 48.1953L30.5808 29.0515C30.1248 28.5955 29.3854 28.5955 28.9294 29.0515C28.4734 29.5075 28.4734 30.2468 28.9294 30.7029L34.4115 36.1851Z" fill="#231F20"/>
<path fill-rule="evenodd" clip-rule="evenodd" d="M48.0631 50.9759L47.8081 51.0329L47.5532 50.9759C45.3372 50.4801 43.0976 49.4045 41.2965 48.0037C39.514 46.6172 38.0339 44.81 37.5594 42.7922L37.5284 42.6604V31.2697H29.7754C29.1305 31.2697 28.6077 30.7469 28.6077 30.102C28.6077 29.4571 29.1305 28.9343 29.7754 28.9343H38.6911C38.6928 28.9343 38.6944 28.9343 38.6961 28.9343C38.6977 28.9343 38.6994 28.9343 38.701 28.9343H56.8484C56.8604 28.9343 56.8723 28.9345 56.8841 28.9348C56.8961 28.9345 56.9081 28.9343 56.9201 28.9343C57.5651 28.9343 58.0879 29.4571 58.0879 30.102V42.6604L58.0569 42.7922C57.5824 44.81 56.1022 46.6172 54.3197 48.0037C52.5186 49.4045 50.279 50.4801 48.0631 50.9759ZM55.7524 31.2697V42.3805C55.4123 43.6443 54.3945 44.9868 52.8859 46.1602C51.4166 47.303 49.5947 48.1947 47.8081 48.6367C46.0215 48.1947 44.1996 47.303 42.7304 46.1602C41.2217 44.9868 40.2039 43.6443 39.8638 42.3805V31.2697H55.7524Z" fill="#231F20"/>
<path fill-rule="evenodd" clip-rule="evenodd" d="M37.8368 23.6922L45.6932 31.5486C46.8273 32.2017 48.4961 32.4313 50.3927 32.1942C52.2395 31.9633 54.1583 31.3055 55.7342 30.3549C56.685 28.7789 57.3428 26.86 57.5738 25.0131C57.8109 23.1165 57.5813 21.4477 56.9283 20.3136L49.0718 12.4571L37.8368 23.6922ZM35.3439 22.8824L29.0518 29.1746C28.5958 29.6306 28.5958 30.3699 29.0519 30.826C29.5079 31.282 30.2472 31.282 30.7033 30.8259L36.1854 25.3437L44.2396 33.3979L44.3548 33.4692C46.1172 34.5605 48.4416 34.7917 50.6824 34.5116C52.9464 34.2286 55.2905 33.4054 57.2079 32.1893L57.4286 32.0494L57.5685 31.8287C58.7848 29.9111 59.6081 27.5669 59.8911 25.3028C60.1713 23.062 59.9401 20.7375 58.8488 18.9752L58.7775 18.86L49.8974 9.97994C49.4414 9.52392 48.7021 9.52392 48.246 9.97994C48.2375 9.98853 48.229 9.99721 48.2208 10.006C48.2122 10.0141 48.2037 10.0223 48.1953 10.0307L35.3756 22.8507C35.3702 22.8559 35.3649 22.8611 35.3596 22.8664C35.3543 22.8717 35.349 22.877 35.3439 22.8824Z" fill="#231F20"/>
<path d="M82.1513 18.211H85.2437C86.5342 18.211 87.5066 17.895 88.1611 17.2631C88.8153 16.6312 89.1428 15.6472 89.1428 14.311C89.1428 13.8234 89.0889 13.3451 88.9813 12.8754C88.8738 12.4062 88.6762 11.9864 88.3896 11.6157C88.1027 11.2461 87.7042 10.9481 87.1932 10.7221C86.6823 10.4964 86.0322 10.3833 85.2437 10.3833H82.1513V18.211ZM82.1513 20.3235V26.4987C82.1513 26.8064 82.0478 27.0725 81.842 27.2978C81.6355 27.5238 81.3802 27.6363 81.0754 27.6363C80.7885 27.6363 80.5377 27.5238 80.3226 27.2978C80.1075 27.0725 80 26.8064 80 26.4987V9.57064C80 9.20969 80.125 8.90308 80.3762 8.65008C80.6274 8.39707 80.9318 8.27076 81.2905 8.27076H85.2437C86.3548 8.27076 87.2959 8.43793 88.067 8.77189C88.8377 9.10624 89.4606 9.55302 89.9358 10.1126C90.4106 10.6726 90.756 11.3177 90.9711 12.0493C91.1862 12.7806 91.2937 13.5434 91.2937 14.338C91.2937 16.2702 90.7471 17.7504 89.6537 18.78C88.5601 19.8093 87.0898 20.3235 85.2437 20.3235H82.1513Z" fill="#231F20"/>
<path d="M108.261 10.1125C107.526 10.1125 106.904 10.2302 106.393 10.4645C105.882 10.6995 105.465 11.0248 105.142 11.4397C104.82 11.855 104.586 12.3562 104.443 12.9431C104.299 13.5297 104.228 14.1846 104.228 14.9065V20.7027C104.228 22.1296 104.555 23.2893 105.209 24.1833C105.864 25.0772 106.881 25.524 108.261 25.524C109.641 25.524 110.659 25.0772 111.314 24.1833C111.968 23.2893 112.295 22.1296 112.295 20.7027V14.9065C112.295 14.1846 112.223 13.5297 112.08 12.9431C111.936 12.3562 111.704 11.855 111.381 11.4397C111.058 11.0248 110.641 10.6995 110.13 10.4645C109.619 10.2302 108.996 10.1125 108.261 10.1125ZM108.261 27.6365C107.24 27.6365 106.339 27.4558 105.559 27.0949C104.779 26.7339 104.134 26.2414 103.623 25.6188C103.112 24.9959 102.726 24.2601 102.467 23.4112C102.207 22.5629 102.077 21.6604 102.077 20.7027V14.9065C102.077 13.9679 102.189 13.0785 102.413 12.2389C102.637 11.3993 103 10.6676 103.502 10.0447C104.004 9.4217 104.645 8.92544 105.424 8.55549C106.204 8.18516 107.15 8 108.261 8C109.373 8 110.319 8.18516 111.099 8.55549C111.878 8.92544 112.519 9.4217 113.021 10.0447C113.523 10.6676 113.886 11.3993 114.11 12.2389C114.334 13.0785 114.446 13.9679 114.446 14.9065V20.7027C114.446 21.6604 114.316 22.5629 114.056 23.4112C113.797 24.2601 113.411 24.9959 112.9 25.6188C112.389 26.2414 111.744 26.7339 110.964 27.0949C110.184 27.4558 109.283 27.6365 108.261 27.6365Z" fill="#231F20"/>
<path d="M135.743 13.6879C135.743 13.2906 135.689 12.8936 135.582 12.496C135.474 12.099 135.281 11.7467 135.004 11.4397C134.726 11.1331 134.336 10.8805 133.834 10.6815C133.332 10.4828 132.695 10.3835 131.925 10.3835H128.268V16.8836H132.086C133.269 16.8836 134.174 16.613 134.802 16.071C135.429 15.5294 135.743 14.7351 135.743 13.6879ZM137.894 13.6879C137.894 15.1325 137.522 16.288 136.778 17.1546C136.034 18.0216 135.017 18.5816 133.726 18.8338L138.029 25.9569C138.118 26.138 138.163 26.346 138.163 26.5803C138.163 26.8692 138.024 27.1129 137.747 27.3115C137.468 27.5102 137.222 27.6095 137.007 27.6095C136.612 27.6095 136.317 27.4378 136.12 27.0949L131.36 18.9695H128.268V26.4989C128.268 26.8063 128.16 27.0724 127.945 27.298C127.73 27.5237 127.47 27.6365 127.165 27.6365C126.878 27.6365 126.632 27.5237 126.426 27.298C126.219 27.0724 126.117 26.8063 126.117 26.4989V9.57086C126.117 9.2099 126.238 8.90293 126.479 8.6503C126.722 8.39729 127.013 8.27098 127.354 8.27098H132.032C133.144 8.27098 134.072 8.42915 134.815 8.74475C135.559 9.06073 136.16 9.4719 136.617 9.97717C137.074 10.4828 137.401 11.0604 137.599 11.7107C137.796 12.3607 137.894 13.02 137.894 13.6879Z" fill="#231F20"/>
<path d="M152.818 10.3834H149.162C148.856 10.3834 148.601 10.2799 148.395 10.0719C148.189 9.8646 148.086 9.61609 148.086 9.3271C148.086 9.09284 148.189 8.85783 148.395 8.62319C148.601 8.38855 148.856 8.27086 149.162 8.27086H158.627C158.913 8.27086 159.168 8.37019 159.393 8.56884C159.617 8.7675 159.729 9.02012 159.729 9.3271C159.729 9.61609 159.622 9.8646 159.407 10.0719C159.191 10.2799 158.931 10.3834 158.627 10.3834H154.97V26.5531C154.97 26.8421 154.866 27.0948 154.66 27.3114C154.454 27.5281 154.199 27.6364 153.894 27.6364C153.589 27.6364 153.334 27.5281 153.128 27.3114C152.921 27.0948 152.818 26.8421 152.818 26.5531V10.3834Z" fill="#231F20"/>
<path d="M171.453 20.9465H176.993L174.223 11.7648L171.453 20.9465ZM169.678 26.824C169.588 27.077 169.445 27.2757 169.248 27.42C169.051 27.5639 168.854 27.6367 168.657 27.6367C168.351 27.6367 168.087 27.5373 167.864 27.3387C167.639 27.14 167.527 26.878 167.527 26.553C167.527 26.4987 167.531 26.4271 167.541 26.3364C167.549 26.2464 167.563 26.1835 167.581 26.1467L172.825 9.43533C172.949 9.0204 173.116 8.67744 173.322 8.40645C173.528 8.13545 173.828 8.00014 174.223 8.00014C174.635 8.00014 174.94 8.13545 175.137 8.40645C175.334 8.67744 175.504 9.0204 175.648 9.43533L180.891 26.1467C180.909 26.1835 180.923 26.2464 180.932 26.3364C180.941 26.4271 180.945 26.4987 180.945 26.553C180.945 26.878 180.838 27.14 180.623 27.3387C180.408 27.5373 180.139 27.6367 179.816 27.6367C179.618 27.6367 179.413 27.5639 179.198 27.42C178.982 27.2757 178.839 27.077 178.767 26.824L177.611 23.0593H170.808L169.678 26.824Z" fill="#231F20"/>
<path d="M82.1513 42.5744H85.2437C86.5342 42.5744 87.5066 42.2584 88.1611 41.6265C88.8153 40.9946 89.1428 40.0106 89.1428 38.674C89.1428 38.1864 89.0889 37.7085 88.9813 37.2388C88.8738 36.7692 88.6762 36.3494 88.3896 35.9791C88.1027 35.6091 87.7042 35.3111 87.1932 35.0855C86.6823 34.8598 86.0322 34.7467 85.2437 34.7467H82.1513V42.5744ZM82.1513 44.6869V50.8621C82.1513 51.1698 82.0478 51.4359 81.842 51.6612C81.6355 51.8869 81.3802 51.9997 81.0754 51.9997C80.7885 51.9997 80.5377 51.8869 80.3226 51.6612C80.1075 51.4359 80 51.1698 80 50.8621V33.934C80 33.5731 80.125 33.2661 80.3762 33.0131C80.6274 32.7605 80.9318 32.6338 81.2905 32.6338H85.2437C86.3548 32.6338 87.2959 32.8013 88.067 33.1349C88.8377 33.4693 89.4606 33.916 89.9358 34.476C90.4106 35.036 90.756 35.6811 90.9711 36.4127C91.1862 37.144 91.2937 37.9068 91.2937 38.701C91.2937 40.6332 90.7471 42.1138 89.6537 43.1434C88.5601 44.1723 87.0898 44.6869 85.2437 44.6869H82.1513Z" fill="#231F20"/>
<path d="M112.322 50.6185C112.322 50.9258 112.219 51.1875 112.013 51.4041C111.807 51.6207 111.552 51.7291 111.246 51.7291H104.121C103.673 51.7291 103.278 51.6391 102.938 51.4581C102.597 51.2782 102.427 50.9434 102.427 50.4558V33.9071C102.427 33.6005 102.548 33.3111 102.79 33.0405C103.032 32.7695 103.332 32.6342 103.691 32.6342H110.978C111.283 32.6342 111.538 32.7384 111.744 32.9457C111.95 33.1533 112.053 33.4108 112.053 33.7174C112.053 34.0248 111.95 34.2729 111.744 34.4622C111.538 34.6518 111.283 34.7467 110.978 34.7467H104.578V41.0845H110.467C110.736 41.0845 110.978 41.1842 111.193 41.3825C111.408 41.5815 111.516 41.8338 111.516 42.1411C111.516 42.4481 111.417 42.7008 111.22 42.8994C111.022 43.0984 110.772 43.1974 110.467 43.1974H104.578V49.6162H111.246C111.533 49.6162 111.785 49.7159 112 49.9142C112.215 50.1132 112.322 50.3475 112.322 50.6185Z" fill="#231F20"/>
<path d="M135.744 38.051C135.744 37.654 135.69 37.2567 135.582 36.8594C135.475 36.4625 135.282 36.1101 135.004 35.8032C134.726 35.4966 134.336 35.2436 133.835 35.0445C133.333 34.8459 132.696 34.7469 131.925 34.7469H128.268V41.2471H132.087C133.27 41.2471 134.175 40.9764 134.803 40.4345C135.43 39.8928 135.744 39.0986 135.744 38.051ZM137.895 38.051C137.895 39.4959 137.522 40.6511 136.779 41.5181C136.035 42.385 135.018 42.9446 133.727 43.1973L138.03 50.3204C138.119 50.5014 138.163 50.7091 138.163 50.9433C138.163 51.2327 138.025 51.4763 137.747 51.675C137.469 51.8732 137.223 51.973 137.008 51.973C136.613 51.973 136.317 51.8013 136.12 51.4583L131.361 43.3326H128.268V50.8624C128.268 51.1697 128.161 51.4358 127.946 51.6615C127.73 51.8867 127.47 51.9999 127.166 51.9999C126.879 51.9999 126.632 51.8867 126.426 51.6615C126.22 51.4358 126.117 51.1697 126.117 50.8624V33.9343C126.117 33.5733 126.238 33.266 126.48 33.0134C126.722 32.7607 127.013 32.634 127.354 32.634H132.033C133.144 32.634 134.072 32.7926 134.816 33.1078C135.56 33.4242 136.16 33.835 136.618 34.3406C137.075 34.8459 137.402 35.4238 137.599 36.0742C137.797 36.7241 137.895 37.3834 137.895 38.051Z" fill="#231F20"/>
<path d="M157.256 46.5558C157.256 46.1225 157.206 45.7522 157.108 45.4452C157.009 45.1386 156.888 44.8766 156.745 44.6596C156.601 44.4429 156.436 44.2716 156.247 44.145C156.059 44.019 155.884 43.9107 155.723 43.82C155.293 43.6033 154.822 43.4096 154.311 43.2379C153.801 43.0662 153.285 42.8814 152.765 42.6828C152.245 42.4841 151.743 42.263 151.259 42.019C150.775 41.7753 150.34 41.4594 149.955 41.071C149.569 40.6831 149.265 40.2135 149.041 39.6625C148.816 39.1122 148.705 38.4398 148.705 37.6448C148.705 36.002 149.189 34.7103 150.157 33.7718C151.125 32.8332 152.451 32.3632 154.137 32.3632C154.477 32.3632 154.907 32.3902 155.427 32.4445C155.947 32.4985 156.453 32.5933 156.946 32.7286C157.44 32.8643 157.861 33.0499 158.21 33.2841C158.56 33.5191 158.735 33.8258 158.735 34.2051C158.735 34.4757 158.641 34.7156 158.452 34.9229C158.264 35.1309 158 35.2343 157.659 35.2343C157.444 35.2343 157.238 35.1938 157.041 35.1125C156.843 35.0312 156.615 34.9453 156.355 34.855C156.095 34.7647 155.799 34.6788 155.468 34.5979C155.136 34.5165 154.746 34.4757 154.298 34.4757C153.868 34.4757 153.451 34.5255 153.047 34.6249C152.644 34.7246 152.286 34.8869 151.972 35.1125C151.658 35.3382 151.407 35.6455 151.219 36.0334C151.03 36.4218 150.937 36.9135 150.937 37.5095C150.937 37.9608 150.99 38.3401 151.098 38.6467C151.205 38.9544 151.336 39.2116 151.488 39.4188C151.64 39.6269 151.806 39.794 151.985 39.92C152.164 40.0467 152.335 40.1456 152.496 40.218C152.926 40.4346 153.397 40.6333 153.908 40.8139C154.419 40.9946 154.934 41.1794 155.454 41.369C155.974 41.5587 156.48 41.7753 156.973 42.019C157.466 42.263 157.901 42.579 158.278 42.9673C158.654 43.3556 158.954 43.82 159.179 44.3616C159.403 44.9036 159.515 45.5719 159.515 46.3661C159.515 47.2691 159.367 48.0682 159.071 48.7635C158.775 49.4584 158.363 50.0458 157.834 50.5237C157.305 51.0023 156.682 51.3681 155.965 51.6208C155.248 51.8734 154.468 51.9997 153.626 51.9997C153.195 51.9997 152.693 51.9637 152.12 51.8914C151.546 51.819 151.004 51.7017 150.493 51.5394C149.982 51.3768 149.552 51.1699 149.202 50.9165C148.853 50.6638 148.678 50.3572 148.678 49.9955C148.678 49.7245 148.772 49.4809 148.96 49.2643C149.149 49.0472 149.377 48.9389 149.646 48.9389C149.825 48.9389 150.04 48.9891 150.291 49.0881C150.542 49.1874 150.829 49.2961 151.152 49.4131C151.474 49.5308 151.842 49.6395 152.254 49.738C152.666 49.8377 153.133 49.8872 153.652 49.8872C154.853 49.8872 155.754 49.5986 156.355 49.0203C156.955 48.4427 157.256 47.6214 157.256 46.5558Z" fill="#231F20"/>
<path d="M171.508 45.3098H177.047L174.277 36.1282L171.508 45.3098ZM169.733 51.1874C169.643 51.44 169.5 51.639 169.303 51.7834C169.105 51.9273 168.908 52 168.711 52C168.406 52 168.142 51.9003 167.918 51.702C167.693 51.5034 167.582 51.2414 167.582 50.9164C167.582 50.862 167.586 50.7905 167.595 50.6997C167.604 50.6098 167.618 50.5468 167.636 50.5101L172.879 33.7987C173.004 33.3837 173.17 33.0404 173.377 32.7694C173.582 32.4984 173.883 32.3631 174.277 32.3631C174.69 32.3631 174.994 32.4984 175.192 32.7694C175.389 33.0404 175.559 33.3837 175.702 33.7987L180.946 50.5101C180.964 50.5468 180.977 50.6098 180.987 50.6997C180.996 50.7905 181 50.862 181 50.9164C181 51.2414 180.893 51.5034 180.678 51.702C180.462 51.9003 180.194 52 179.871 52C179.673 52 179.468 51.9273 179.252 51.7834C179.037 51.639 178.893 51.44 178.822 51.1874L177.666 47.4227H170.862L169.733 51.1874Z" fill="#231F20"/>
</svg>
