<svg width="38" height="37" viewBox="0 0 38 37" fill="none" xmlns="http://www.w3.org/2000/svg">
<path d="M37.1784 36.7355L28.5161 15.1114V1.96013H24.3433L22.3831 0L19.0319 0.69557L15.6809 0L13.7208 1.96013H9.54767V15.1114L0.885625 36.7355H0.0634766V37.0001H38.0002V36.7355H37.1784ZM35.7873 36.7355H33.3847L26.3664 15.1114L27.3781 15.6804L35.7873 36.7355ZM27.2515 14.163L25.9869 13.4674V3.22469H27.2515V14.163ZM24.7224 3.22469V12.7722L24.4695 12.6456C23.4578 12.0766 22.8255 11.0016 22.8255 9.86363V2.21298L23.8372 3.22469H24.7224ZM21.561 1.45412V9.80034C21.561 11.381 22.4464 12.8985 23.8372 13.6573L24.7857 14.163L32.0569 36.7355H27.1252L24.7857 19.9168C24.6594 19.158 24.3433 18.4627 23.8372 17.8934L19.0319 12.3928L14.1635 17.8934C13.6575 18.4627 13.3413 19.158 13.2151 19.9168L10.8755 36.7355H5.94386L13.2151 14.2263L14.1635 13.7206C15.5543 12.9617 16.4398 11.4443 16.4398 9.86363V1.45412L19.0319 1.96013L21.561 1.45412ZM19.9173 18.3994L21.3714 16.945L22.9521 18.7156C23.2683 19.095 23.5211 19.5374 23.5844 20.0434L23.9005 22.3827L19.9173 18.3994ZM21.6876 21.9402C19.9173 21.4342 18.0834 21.4342 16.3765 21.9402L19.0319 19.2845L21.6876 21.9402ZM19.0319 17.5143L17.5145 15.9966L19.0319 14.2896L20.5496 15.9966L19.0319 17.5143ZM16.6926 16.945L18.1467 18.3994L14.1635 22.3827L14.4796 20.0434C14.5429 19.5374 14.7325 19.095 15.1119 18.7156L16.6926 16.945ZM13.8474 24.5323L14.9853 23.9001C17.5145 22.5092 20.5496 22.5092 23.0154 23.9001L24.1534 24.5323L25.924 36.7355H12.1401L13.8474 24.5323ZM14.2268 3.22469L15.2382 2.21298V9.86363C15.2382 11.0016 14.6059 12.0766 13.5945 12.6456L13.3413 12.7722V3.22469H14.2268ZM12.0768 3.22469V13.4674L10.8122 14.163V3.22469H12.0768ZM10.686 15.6804L11.6977 15.1114L4.6793 36.7355H2.27645L10.686 15.6804Z" fill="#2B3232"/>
</svg>
