<svg width="22" height="28" viewBox="0 0 22 28" fill="none" xmlns="http://www.w3.org/2000/svg">
<path d="M10.9999 0.666667C7.32986 0.666667 4.33325 3.66328 4.33325 7.33333C4.33325 11.0034 7.32986 14 10.9999 14C14.67 14 17.6666 11.0034 17.6666 7.33333C17.6666 3.66328 14.67 0.666667 10.9999 0.666667ZM10.9999 2.66667C13.5891 2.66667 15.6666 4.74416 15.6666 7.33333C15.6666 9.92251 13.5891 12 10.9999 12C8.41074 12 6.33325 9.92251 6.33325 7.33333C6.33325 4.74416 8.41074 2.66667 10.9999 2.66667ZM2.9856 16.6667C1.53239 16.6667 0.333252 17.8658 0.333252 19.319V20.3333C0.333252 22.7361 1.85276 24.5948 3.87101 25.7083C5.88926 26.8218 8.44532 27.3333 10.9999 27.3333C13.5545 27.3333 16.1106 26.8218 18.1288 25.7083C19.8497 24.7589 21.1448 23.2417 21.5077 21.3333H21.6679V19.319C21.6679 17.8658 20.4674 16.6667 19.0142 16.6667H2.9856ZM2.9856 18.6667H19.0142C19.3864 18.6667 19.6679 18.9469 19.6679 19.319V19.3333H19.6666V20.3333C19.6666 21.9306 18.7694 23.0718 17.1627 23.9583C15.5559 24.8448 13.2787 25.3333 10.9999 25.3333C8.72118 25.3333 6.44391 24.8448 4.83716 23.9583C3.23041 23.0718 2.33325 21.9306 2.33325 20.3333V19.319C2.33325 18.9469 2.61347 18.6667 2.9856 18.6667Z" fill="#2B3232"/>
</svg>
